Coordinates
version=1
nRows=29
nColumns=24
inDegrees=yes

Units are S.I. units (second, meters, Newtons, ...)
Angles are in degrees.

endheader
time	pelvis_tilt	pelvis_list	pelvis_rotation	pelvis_tx	pelvis_ty	pelvis_tz	hip_flexion_r	hip_adduction_r	hip_rotation_r	knee_angle_r	ankle_angle_r	subtalar_angle_r	mtp_angle_r	hip_flexion_l	hip_adduction_l	hip_rotation_l	knee_angle_l	ankle_angle_l	subtalar_angle_l	mtp_angle_l	lumbar_extension	lumbar_bending	lumbar_rotation
      0.43300000	     -4.75990152	      2.70191618	      0.02723706	     -0.82975836	      1.05370129	      0.33092268	     26.92690062	      0.50635368	     -5.41269204	     -4.75551713	      3.39881042	     -4.08358103	     -0.08278005	     -5.32101550	      7.02034444	     -1.10002351	    -10.43403484	     12.11666316	     -3.30417781	     -0.05012883	      6.14309536	      0.09909864	     -1.30575706
      0.43716667	     -4.77226153	      2.74957144	      0.01303606	     -0.82430245	      1.05321983	      0.33112698	     26.86439202	      0.51798479	     -5.37637648	     -4.72301120	      3.33701396	     -3.99063967	     -0.08601375	     -5.35194318	      7.02287228	     -1.15068936	    -10.99559661	     12.04036027	     -3.28990936	     -0.07003086	      6.16001004	      0.00658669	     -1.33417289
      0.44133333	     -4.80859498	      2.79402693	     -0.13992304	     -0.81865172	      1.05265942	      0.33155018	     26.86881349	      0.59676496	     -5.37338808	     -4.83454554	      3.16402878	     -3.53777209	     -0.10223887	     -5.35402891	      7.02494638	     -1.48084252	    -11.56539567	     11.96715807	     -2.83594018	     -0.18136795	      6.20533248	     -0.19066360	     -1.55138458
      0.44550000	     -4.80277448	      2.79491251	     -0.13254368	     -0.81296237	      1.05226847	      0.33168278	     26.77293585	      0.63714867	     -5.33820448	     -4.94446651	      3.15814987	     -3.47234992	     -0.10315999	     -5.38090438	      6.96784053	     -1.53967447	    -12.19401694	     11.94738640	     -2.80288640	     -0.19531687	      6.26080368	     -0.16210568	     -1.56514534
      0.44966667	     -4.81454858	      2.79228612	     -0.27023931	     -0.80710544	      1.05179758	      0.33211013	     26.74166963	      0.75462211	     -5.34301563	     -5.19991072	      3.12580287	     -3.13206071	     -0.10804435	     -5.36619754	      6.89971828	     -1.99245123	    -12.87667615	     12.01205777	     -2.07942740	     -0.27458062	      6.32145321	     -0.16066133	     -1.66459982
      0.45383333	     -4.78595468	      2.78666323	     -0.25002956	     -0.80136156	      1.05147988	      0.33218393	     26.62536114	      0.78499214	     -5.26274114	     -5.43610444	      3.09691094	     -3.08529419	     -0.10756215	     -5.37050227	      6.82527740	     -2.03856393	    -13.61020378	     11.97444926	     -2.03807977	     -0.28280175	      6.37598650	     -0.12756003	     -1.66412534
      0.45800000	     -4.79486422	      2.80791917	     -0.39192751	     -0.79557420	      1.05102750	      0.33269533	     26.60314193	      0.88361389	     -5.13774942	     -5.79917135	      2.97875166	     -2.97195460	     -0.10516932	     -5.29016799	      6.76241232	     -2.53446551	    -14.41874654	     11.94503054	     -1.19490377	     -0.32753754	      6.37615540	     -0.17152019	     -1.68243843
      0.46216667	     -4.74265843	      2.78725278	     -0.35917668	     -0.78976882	      1.05078708	      0.33275113	     26.45779672	      0.91673910	     -5.03506054	     -6.11624873	      2.93353905	     -2.94511877	     -0.10359116	     -5.26271863	      6.65823745	     -2.61850939	    -15.26646966	     11.89302239	     -1.14328139	     -0.33191961	      6.43422172	     -0.11730970	     -1.67880075
      0.46633333	     -4.73626391	      2.80083176	     -0.52829800	     -0.78395268	      1.05038545	      0.33336464	     26.42001273	      1.03627837	     -4.81060381	     -6.54978504	      2.72292708	     -3.06217243	     -0.09523607	     -5.13943394	      6.56558510	     -3.18957516	    -16.18238834	     11.74570418	     -0.19324733	     -0.34182899	      6.40434643	     -0.13111753	     -1.66817374
      0.47050000	     -4.72626647	      2.72802229	     -0.47930135	     -0.77798893	      1.05014663	      0.33360212	     26.29286721	      1.13591276	     -4.66253273	     -6.88929892	      2.62751262	     -3.12801644	     -0.08985874	     -4.99808345	      6.36090385	     -3.44089604	    -17.17994923	     11.67739432	      0.04549332	     -0.33979884	      6.35883523	     -0.08526677	     -1.65487826
      0.47466667	     -4.67495537	      2.70809149	     -0.59391662	     -0.77213403	      1.04989485	      0.33430836	     26.14734316	      1.27617722	     -4.20277149	     -7.25780508	      2.30567569	     -3.61860748	     -0.06819301	     -4.86210166	      6.18973481	     -3.94093112	    -18.23003886	     11.54884199	      1.16909909	     -0.29981082	      6.45200495	     -0.10665571	     -1.57917686
      0.47883333	     -4.62552355	      2.68180934	     -0.61925167	     -0.76632107	      1.04969789	      0.33447562	     26.04098156	      1.33299847	     -4.16605653	     -7.73194725	      2.18766316	     -3.69283909	     -0.06236339	     -4.69071491	      6.04863388	     -4.21582209	    -19.33195004	     11.38421921	      1.30747952	     -0.28773780	      6.37497110	      0.00084099	     -1.58459564
      0.48300000	     -4.56351793	      2.63684297	     -0.73549794	     -0.76045597	      1.04950407	      0.33525514	     25.87688770	      1.50277119	     -3.68384185	     -8.11278225	      1.76983996	     -4.46812302	     -0.01883444	     -4.49600045	      5.82349328	     -4.74507804	    -20.50933666	     11.18913658	      2.35134891	     -0.15018463	      6.42024850	      0.03909778	     -1.49514496
      0.48716667	     -4.50261696	      2.59014527	     -0.75835265	     -0.75462857	      1.04937887	      0.33557657	     25.73348609	      1.58923768	     -3.51638293	     -8.55203809	      1.50562259	     -4.63676822	      0.00851409	     -4.26640622	      5.62245533	     -5.04419382	    -21.72217144	     10.70614379	      2.78541711	     -0.06681470	      6.38195532	      0.07452512	     -1.46701031
      0.49133333	     -4.45298750	      2.55520222	     -0.83164977	     -0.74885184	      1.04921577	      0.33592739	     25.62897037	      1.67841932	     -3.37091389	     -9.04680353	      1.25850848	     -4.87907694	      0.03036851	     -3.98623097	      5.43379424	     -5.39414496	    -23.00125010	     10.26475722	      3.23747251	      0.01654020	      6.31626866	      0.20631132	     -1.46997722
      0.49550000	     -4.39518662	      2.43948588	     -0.81052880	     -0.74290881	      1.04915479	      0.33622597	     25.45940535	      1.81498711	     -3.27742256	     -9.46464278	      1.11373301	     -4.94623782	      0.03992576	     -3.68325831	      5.12946172	     -5.69744734	    -24.37065754	      9.95893024	      3.42412699	      0.05336587	      6.24242540	      0.27941422	     -1.46852867
      0.49966667	     -4.32633758	      2.35317277	     -0.91921804	     -0.73707977	      1.04905831	      0.33706103	     25.28198613	      2.01764442	     -2.81421718	     -9.85346226	      0.56649887	     -5.99390900	      0.10187317	     -3.35278511	      4.81256569	     -6.17916720	    -25.77861318	      9.41753714	      4.42635849	      0.37870416	      6.30839047	      0.38631356	     -1.40946912
      0.50383333	     -4.25520434	      2.23329077	     -0.90553057	     -0.73124094	      1.04903059	      0.33730294	     25.11665092	      2.14690843	     -2.76448837	    -10.30676388	      0.44494044	     -5.97421009	      0.11284953	     -2.98715279	      4.49543409	     -6.43016660	    -27.25643569	      9.00901463	      4.57193236	      0.42141025	      6.17486386	      0.50876157	     -1.41734095
      0.50800000	     -4.16904489	      2.11838725	     -0.92542085	     -0.72541694	      1.04902962	      0.33771177	     24.93088876	      2.29577360	     -2.61453719	    -10.74289349	      0.13312566	     -6.34297924	      0.14633626	     -2.61044574	      4.16325836	     -6.69229449	    -28.73876821	      8.03277526	      5.20637425	      0.60414793	      6.20688470	      0.63838984	     -1.39365216
      0.51216667	     -4.10055028	      1.97464344	     -0.97105603	     -0.71963588	      1.04899002	      0.33834151	     24.75131394	      2.50741556	     -2.32623228	    -11.14500519	     -0.28244537	     -7.10734153	      0.24336524	     -2.17076410	      3.76845371	     -7.02325285	    -30.32973894	      7.48537315	      5.67674199	      1.16508691	      6.12432688	      0.84038308	     -1.35588099
      0.51633333	     -4.00936606	      1.83576117	     -0.96408631	     -0.71390376	      1.04901146	      0.33854710	     24.57374952	      2.64615436	     -2.31432836	    -11.62113673	     -0.37589923	     -7.10778723	      0.26935580	     -1.72377399	      3.41724699	     -7.18354667	    -31.93607165	      6.72803694	      5.96977138	      1.29386887	      5.99642357	      1.06953435	     -1.36953478
      0.52050000	     -3.91769452	      1.66443384	     -0.95409193	     -0.70813018	      1.04905141	      0.33883053	     24.37720183	      2.82316849	     -2.27452248	    -12.06242615	     -0.49583219	     -7.21866546	      0.29350100	     -1.25003239	      3.01329560	     -7.34783527	    -33.58303792	      5.92051326	      6.26176147	      1.43107494	      5.90318732	      1.29425674	     -1.37793934
      0.52466667	     -3.82931879	      1.46144637	     -0.93792596	     -0.70232894	      1.04909832	      0.33914642	     24.17063574	      3.03500257	     -2.25420127	    -12.48587766	     -0.62545155	     -7.41003027	      0.32021363	     -0.74769424	      2.56523095	     -7.49019531	    -35.26545938	      5.08941340	      6.53647573	      1.59904237	      5.84266258	      1.53410058	     -1.38003201
      0.52883333	     -3.72851527	      1.26207301	     -0.92712014	     -0.69662943	      1.04915616	      0.33944810	     23.95537368	      3.23924514	     -2.21567384	    -12.90904085	     -0.71810488	     -7.52555093	      0.34147671	     -0.22422896	      2.12475707	     -7.58977704	    -36.98634363	      4.36869265	      6.73003684	      1.73139136	      5.71861774	      1.79200600	     -1.38857849
      0.53300000	     -3.61987061	      1.01871237	     -0.91548485	     -0.69082199	      1.04925047	      0.33973858	     23.71895711	      3.48730042	     -2.30094555	    -13.32043153	     -0.79920063	     -7.71846646	      0.37059436	      0.30080533	      1.63303632	     -7.68301704	    -38.70140724	      3.46018987	      6.93212556	      1.92418560	      5.67574850	      2.04875200	     -1.37699022
      0.53716667	     -3.53744755	      0.78255359	     -0.89079033	     -0.68513496	      1.04930215	      0.33997299	     23.50994153	      3.71738414	     -2.34430138	    -13.72202613	     -0.84500860	     -7.84067079	      0.40330999	      0.88958732	      1.15909066	     -7.70023501	    -40.44945318	      2.65872789	      7.04840771	      2.13502853	      5.59282858	      2.35026654	     -1.37095991
      0.54133333	     -3.44005159	      0.53653583	     -0.86883638	     -0.67949309	      1.04939084	      0.34019095	     23.28008462	      3.95358928	     -2.41620441	    -14.11405693	     -0.84221919	     -7.88507679	      0.43490864	      1.48393676	      0.67982507	     -7.68469190	    -42.20591789	      1.89383790	      7.11947099	      2.32857919	      5.48604690	      2.66528521	     -1.36599740
      0.54550000	     -3.34486145	      0.30243799	     -0.86160234	     -0.67399509	      1.04945855	      0.34044245	     23.05098385	      4.18403719	     -2.38722815	    -14.49004140	     -0.81573300	     -7.84270161	      0.45433796	      2.10922643	      0.21866330	     -7.63766594	    -43.98198149	      1.31994010	      7.15265835	      2.43138328	      5.32922141	      2.97473227	     -1.37080384
      0.54966667	     -3.26985468	      0.01720978	     -0.79228353	     -0.66830797	      1.04957686	      0.34052267	     22.81984671	      4.43364975	     -2.62406065	    -14.84370958	     -0.71391717	     -7.82758556	      0.49880297	      2.75994932	     -0.28085052	     -7.50510468	    -45.70679118	      0.46388939	      7.08941289	      2.68570584	      5.33393272	      3.28195573	     -1.32201418
